<svg width="41" height="41" viewBox="0 0 41 41" fill="none" xmlns="http://www.w3.org/2000/svg">
<rect x="0.824951" y="0.5" width="40" height="40" rx="4" fill="#5BDCCA"/>
<path d="M20.125 25.3C20.225 25.4 20.425 25.5 20.625 25.5H21.025C21.225 25.5 21.425 25.4 21.525 25.3L26.625 20.2C26.825 20 26.825 19.7 26.625 19.5L25.925 18.8C25.725 18.6 25.425 18.6 25.225 18.8L21.825 22.2V12C21.825 11.7 21.625 11.5 21.325 11.5H20.325C20.025 11.5 19.825 11.7 19.825 12V22.2L16.425 18.8C16.225 18.5 15.825 18.5 15.725 18.7L15.025 19.4C14.825 19.6 14.825 19.9 15.025 20.1L20.125 25.3ZM29.825 27.5V24C29.825 23.7 29.625 23.5 29.325 23.5H28.325C28.025 23.5 27.825 23.7 27.825 24V27.5H13.825V24C13.825 23.7 13.625 23.5 13.325 23.5H12.325C12.025 23.5 11.825 23.7 11.825 24V27.5C11.825 28.6 12.725 29.5 13.825 29.5H27.825C28.925 29.5 29.825 28.6 29.825 27.5Z" fill="white"/>
</svg>