<svg width="41" height="41" viewBox="0 0 41 41" fill="none" xmlns="http://www.w3.org/2000/svg">
<rect x="0.824951" y="0.5" width="40" height="40" rx="4" fill="#5A6FE4"/>
<mask id="path-2-outside-1_909_13092" maskUnits="userSpaceOnUse" x="12.7129" y="9.5" width="16" height="22" fill="black">
<rect fill="white" x="12.7129" y="9.5" width="16" height="22"/>
<path fill-rule="evenodd" clip-rule="evenodd" d="M20.8249 30.5C16.0369 30.5 13.7129 28.632 13.7129 24.796C13.7129 21.548 15.5009 17.084 18.2129 15.232L16.9049 11.888C16.8569 11.764 16.8729 11.624 16.9489 11.516C17.0249 11.404 17.1489 11.34 17.2809 11.34H20.6089L20.8369 10.756C20.8929 10.6 21.0449 10.5 21.2089 10.5H23.8889C24.0129 10.5 24.1289 10.556 24.2049 10.656C24.2769 10.756 24.3049 10.884 24.2729 11.004L23.1929 15.084C26.0449 16.832 27.9369 21.456 27.9369 24.796C27.9369 28.632 25.6129 30.5 20.8249 30.5ZM20.3009 12.14H17.8689L18.9209 14.824C19.5209 14.532 20.1569 14.368 20.8249 14.368C21.3969 14.368 21.9409 14.492 22.4649 14.708L23.3689 11.3H21.4849L20.7969 13.068C20.7169 13.272 20.4889 13.376 20.2809 13.296C20.0769 13.216 19.9729 12.988 20.0529 12.78L20.3009 12.14ZM27.1369 24.792C27.1369 20.552 24.1649 15.168 20.8249 15.168C17.4849 15.168 14.5129 20.552 14.5129 24.796C14.5129 28.188 16.4569 29.7 20.8249 29.7C25.1929 29.7 27.1369 28.188 27.1369 24.792ZM19.717 23.94C19.717 24.552 20.213 25.048 20.825 25.048C21.437 25.048 21.933 24.552 21.933 23.94C21.933 23.412 21.621 23.128 20.697 22.812C19.937 22.552 18.921 22.076 18.921 20.928C18.921 20.012 19.569 19.248 20.429 19.064V18.772C20.429 18.552 20.609 18.372 20.829 18.372C21.049 18.372 21.229 18.552 21.229 18.772V19.064C22.089 19.252 22.737 20.016 22.737 20.928C22.737 21.148 22.557 21.328 22.337 21.328C22.117 21.328 21.937 21.148 21.937 20.928C21.937 20.316 21.441 19.82 20.829 19.82C20.217 19.82 19.721 20.32 19.721 20.928C19.721 21.424 20.093 21.76 20.957 22.056C21.877 22.368 22.733 22.816 22.733 23.94C22.733 24.856 22.085 25.62 21.225 25.804V26.096C21.225 26.316 21.045 26.496 20.825 26.496C20.605 26.496 20.425 26.316 20.425 26.096V25.804C19.565 25.616 18.917 24.852 18.917 23.94C18.917 23.72 19.097 23.54 19.317 23.54C19.537 23.54 19.717 23.72 19.717 23.94Z"/>
</mask>
<path fill-rule="evenodd" clip-rule="evenodd" d="M20.8249 30.5C16.0369 30.5 13.7129 28.632 13.7129 24.796C13.7129 21.548 15.5009 17.084 18.2129 15.232L16.9049 11.888C16.8569 11.764 16.8729 11.624 16.9489 11.516C17.0249 11.404 17.1489 11.34 17.2809 11.34H20.6089L20.8369 10.756C20.8929 10.6 21.0449 10.5 21.2089 10.5H23.8889C24.0129 10.5 24.1289 10.556 24.2049 10.656C24.2769 10.756 24.3049 10.884 24.2729 11.004L23.1929 15.084C26.0449 16.832 27.9369 21.456 27.9369 24.796C27.9369 28.632 25.6129 30.5 20.8249 30.5ZM20.3009 12.14H17.8689L18.9209 14.824C19.5209 14.532 20.1569 14.368 20.8249 14.368C21.3969 14.368 21.9409 14.492 22.4649 14.708L23.3689 11.3H21.4849L20.7969 13.068C20.7169 13.272 20.4889 13.376 20.2809 13.296C20.0769 13.216 19.9729 12.988 20.0529 12.78L20.3009 12.14ZM27.1369 24.792C27.1369 20.552 24.1649 15.168 20.8249 15.168C17.4849 15.168 14.5129 20.552 14.5129 24.796C14.5129 28.188 16.4569 29.7 20.8249 29.7C25.1929 29.7 27.1369 28.188 27.1369 24.792ZM19.717 23.94C19.717 24.552 20.213 25.048 20.825 25.048C21.437 25.048 21.933 24.552 21.933 23.94C21.933 23.412 21.621 23.128 20.697 22.812C19.937 22.552 18.921 22.076 18.921 20.928C18.921 20.012 19.569 19.248 20.429 19.064V18.772C20.429 18.552 20.609 18.372 20.829 18.372C21.049 18.372 21.229 18.552 21.229 18.772V19.064C22.089 19.252 22.737 20.016 22.737 20.928C22.737 21.148 22.557 21.328 22.337 21.328C22.117 21.328 21.937 21.148 21.937 20.928C21.937 20.316 21.441 19.82 20.829 19.82C20.217 19.82 19.721 20.32 19.721 20.928C19.721 21.424 20.093 21.76 20.957 22.056C21.877 22.368 22.733 22.816 22.733 23.94C22.733 24.856 22.085 25.62 21.225 25.804V26.096C21.225 26.316 21.045 26.496 20.825 26.496C20.605 26.496 20.425 26.316 20.425 26.096V25.804C19.565 25.616 18.917 24.852 18.917 23.94C18.917 23.72 19.097 23.54 19.317 23.54C19.537 23.54 19.717 23.72 19.717 23.94Z" fill="white"/>
<path d="M18.2129 15.232L18.3257 15.3972L18.4571 15.3074L18.3991 15.1591L18.2129 15.232ZM16.9049 11.888L16.7184 11.9602L16.7186 11.9609L16.9049 11.888ZM16.9489 11.516L17.1125 11.6311L17.1144 11.6283L16.9489 11.516ZM20.6089 11.34V11.54H20.7455L20.7952 11.4127L20.6089 11.34ZM20.8369 10.756L21.0233 10.8288L21.0251 10.8236L20.8369 10.756ZM24.2049 10.656L24.3673 10.5391L24.3641 10.535L24.2049 10.656ZM24.2729 11.004L24.0796 10.9525L24.0795 10.9528L24.2729 11.004ZM23.1929 15.084L22.9995 15.0328L22.9615 15.1767L23.0884 15.2545L23.1929 15.084ZM17.8689 12.14V11.94H17.5757L17.6827 12.213L17.8689 12.14ZM20.3009 12.14L20.4874 12.2123L20.5929 11.94H20.3009V12.14ZM18.9209 14.824L18.7347 14.897L18.8137 15.0986L19.0084 15.0038L18.9209 14.824ZM22.4649 14.708L22.3887 14.8929L22.5997 14.9799L22.6582 14.7593L22.4649 14.708ZM23.3689 11.3L23.5622 11.3513L23.6289 11.1H23.3689V11.3ZM21.4849 11.3V11.1H21.3481L21.2985 11.2275L21.4849 11.3ZM20.7969 13.068L20.9831 13.141L20.9833 13.1405L20.7969 13.068ZM20.2809 13.296L20.2079 13.4822L20.2091 13.4827L20.2809 13.296ZM20.0529 12.78L19.8664 12.7077L19.8662 12.7082L20.0529 12.78ZM20.697 22.812L20.6323 23.0012L20.6323 23.0012L20.697 22.812ZM20.429 19.064L20.4708 19.2596L20.629 19.2257V19.064H20.429ZM21.229 19.064H21.029V19.225L21.1863 19.2594L21.229 19.064ZM20.957 22.056L20.8922 22.2452L20.8928 22.2454L20.957 22.056ZM21.225 25.804L21.1831 25.6084L21.025 25.6423V25.804H21.225ZM20.425 25.804H20.625V25.643L20.4677 25.6086L20.425 25.804ZM13.5129 24.796C13.5129 26.7563 14.1087 28.2479 15.3482 29.2425C16.5789 30.23 18.4106 30.7 20.8249 30.7V30.3C18.4512 30.3 16.7269 29.836 15.5986 28.9305C14.479 28.0321 13.9129 26.6717 13.9129 24.796H13.5129ZM18.1001 15.0668C16.7029 16.021 15.5581 17.6357 14.7634 19.4087C13.9679 21.1834 13.5129 23.1392 13.5129 24.796H13.9129C13.9129 23.2048 14.3519 21.3046 15.1284 19.5723C15.9057 17.8383 17.0109 16.295 18.3257 15.3972L18.1001 15.0668ZM16.7186 11.9609L18.0266 15.3049L18.3991 15.1591L17.0911 11.8151L16.7186 11.9609ZM16.7853 11.4009C16.6699 11.5649 16.6468 11.7754 16.7184 11.9602L17.0914 11.8158C17.067 11.7526 17.0758 11.6831 17.1125 11.6311L16.7853 11.4009ZM17.2809 11.14C17.0835 11.14 16.8971 11.2361 16.7834 11.4037L17.1144 11.6283C17.1527 11.5719 17.2143 11.54 17.2809 11.54V11.14ZM20.6089 11.14H17.2809V11.54H20.6089V11.14ZM20.6506 10.6833L20.4226 11.2673L20.7952 11.4127L21.0232 10.8287L20.6506 10.6833ZM21.2089 10.3C20.9659 10.3 20.7349 10.448 20.6487 10.6884L21.0251 10.8236C21.0508 10.752 21.1239 10.7 21.2089 10.7V10.3ZM23.8889 10.3H21.2089V10.7H23.8889V10.3ZM24.3641 10.535C24.2495 10.3842 24.0741 10.3 23.8889 10.3V10.7C23.9517 10.7 24.0082 10.7278 24.0457 10.777L24.3641 10.535ZM24.4661 11.0555C24.5149 10.8728 24.4712 10.6836 24.3672 10.5391L24.0426 10.7729C24.0826 10.8284 24.0949 10.8952 24.0796 10.9525L24.4661 11.0555ZM23.3862 15.1352L24.4662 11.0552L24.0795 10.9528L22.9995 15.0328L23.3862 15.1352ZM28.1369 24.796C28.1369 23.0924 27.6555 21.0728 26.8159 19.259C25.9773 17.4473 24.7695 15.8157 23.2974 14.9135L23.0884 15.2545C24.4683 16.1003 25.6325 17.6547 26.4529 19.427C27.2723 21.1972 27.7369 23.1596 27.7369 24.796H28.1369ZM20.8249 30.7C23.2392 30.7 25.0709 30.23 26.3016 29.2425C27.541 28.2479 28.1369 26.7563 28.1369 24.796H27.7369C27.7369 26.6717 27.1707 28.0321 26.0512 28.9305C24.9229 29.836 23.1986 30.3 20.8249 30.3V30.7ZM17.8689 12.34H20.3009V11.94H17.8689V12.34ZM19.1071 14.751L18.0551 12.067L17.6827 12.213L18.7347 14.897L19.1071 14.751ZM20.8249 14.168C20.1231 14.168 19.4574 14.3405 18.8334 14.6442L19.0084 15.0038C19.5844 14.7235 20.1907 14.568 20.8249 14.568V14.168ZM22.5411 14.5231C21.9965 14.2986 21.4267 14.168 20.8249 14.168V14.568C21.3671 14.568 21.8852 14.6854 22.3887 14.8929L22.5411 14.5231ZM23.1756 11.2487L22.2716 14.6567L22.6582 14.7593L23.5622 11.3513L23.1756 11.2487ZM21.4849 11.5H23.3689V11.1H21.4849V11.5ZM20.9833 13.1405L21.6713 11.3725L21.2985 11.2275L20.6105 12.9955L20.9833 13.1405ZM20.2091 13.4827C20.5214 13.6028 20.8636 13.4457 20.9831 13.141L20.6107 12.995C20.5702 13.0983 20.4564 13.1492 20.3527 13.1093L20.2091 13.4827ZM19.8662 12.7082C19.7461 13.0205 19.9032 13.3627 20.2079 13.4822L20.3539 13.1098C20.2506 13.0693 20.1997 12.9555 20.2396 12.8518L19.8662 12.7082ZM20.1144 12.0677L19.8664 12.7077L20.2394 12.8523L20.4874 12.2123L20.1144 12.0677ZM20.8249 15.368C22.3876 15.368 23.9133 16.6363 25.0633 18.4952C26.2065 20.3432 26.9369 22.7132 26.9369 24.792H27.3369C27.3369 22.6308 26.5813 20.1888 25.4035 18.2848C24.2324 16.3917 22.6022 14.968 20.8249 14.968V15.368ZM14.7129 24.796C14.7129 22.7152 15.4433 20.3442 16.5865 18.4957C17.7364 16.6362 19.2622 15.368 20.8249 15.368V14.968C19.0476 14.968 17.4173 16.3918 16.2463 18.2853C15.0685 20.1898 14.3129 22.6328 14.3129 24.796H14.7129ZM20.8249 29.5C18.6565 29.5 17.1331 29.1232 16.1536 28.3621C15.1857 27.6099 14.7129 26.4526 14.7129 24.796H14.3129C14.3129 26.5314 14.8121 27.8261 15.9082 28.6779C16.9927 29.5208 18.6253 29.9 20.8249 29.9V29.5ZM26.9369 24.792C26.9369 26.4507 26.4641 27.6089 25.4961 28.3616C24.5167 29.1232 22.9933 29.5 20.8249 29.5V29.9C23.0245 29.9 24.6571 29.5208 25.7417 28.6774C26.8377 27.8251 27.3369 26.5293 27.3369 24.792H26.9369ZM20.825 24.848C20.3234 24.848 19.917 24.4415 19.917 23.94H19.517C19.517 24.6625 20.1025 25.248 20.825 25.248V24.848ZM21.733 23.94C21.733 24.4415 21.3265 24.848 20.825 24.848V25.248C21.5474 25.248 22.133 24.6625 22.133 23.94H21.733ZM20.6323 23.0012C21.0902 23.1578 21.3655 23.2972 21.5267 23.4443C21.6736 23.5783 21.733 23.725 21.733 23.94H22.133C22.133 23.627 22.0364 23.3677 21.7963 23.1487C21.5705 22.9428 21.2278 22.7822 20.7617 22.6228L20.6323 23.0012ZM18.721 20.928C18.721 21.5713 19.0095 22.03 19.3949 22.3557C19.7733 22.6756 20.2465 22.8692 20.6323 23.0012L20.7617 22.6228C20.3875 22.4947 19.9727 22.3204 19.6531 22.0503C19.3404 21.786 19.121 21.4327 19.121 20.928H18.721ZM20.3871 18.8684C19.4373 19.0716 18.721 19.9153 18.721 20.928H19.121C19.121 20.1087 19.7007 19.4243 20.4708 19.2596L20.3871 18.8684ZM20.229 18.772V19.064H20.629V18.772H20.229ZM20.829 18.172C20.4985 18.172 20.229 18.4415 20.229 18.772H20.629C20.629 18.6625 20.7194 18.572 20.829 18.572V18.172ZM21.429 18.772C21.429 18.4415 21.1594 18.172 20.829 18.172V18.572C20.9385 18.572 21.029 18.6625 21.029 18.772H21.429ZM21.429 19.064V18.772H21.029V19.064H21.429ZM22.937 20.928C22.937 19.9188 22.2204 19.076 21.2717 18.8686L21.1863 19.2594C21.9576 19.428 22.537 20.1131 22.537 20.928H22.937ZM22.337 21.528C22.6674 21.528 22.937 21.2585 22.937 20.928H22.537C22.537 21.0375 22.4465 21.128 22.337 21.128V21.528ZM21.737 20.928C21.737 21.2585 22.0065 21.528 22.337 21.528V21.128C22.2274 21.128 22.137 21.0375 22.137 20.928H21.737ZM20.829 20.02C21.3305 20.02 21.737 20.4265 21.737 20.928H22.137C22.137 20.2055 21.5514 19.62 20.829 19.62V20.02ZM19.921 20.928C19.921 20.43 20.3279 20.02 20.829 20.02V19.62C20.1061 19.62 19.521 20.21 19.521 20.928H19.921ZM21.0218 21.8668C20.599 21.7219 20.3205 21.5747 20.1496 21.4191C19.9875 21.2715 19.921 21.1161 19.921 20.928H19.521C19.521 21.2359 19.6404 21.4965 19.8803 21.7149C20.1114 21.9253 20.451 22.0941 20.8922 22.2452L21.0218 21.8668ZM22.933 23.94C22.933 23.318 22.6923 22.8714 22.3226 22.5438C21.9622 22.2245 21.4861 22.0242 21.0212 21.8666L20.8928 22.2454C21.3479 22.3997 21.7597 22.5795 22.0574 22.8432C22.3457 23.0986 22.533 23.438 22.533 23.94H22.933ZM21.2668 25.9996C22.2167 25.7963 22.933 24.9527 22.933 23.94H22.533C22.533 24.7593 21.9533 25.4436 21.1831 25.6084L21.2668 25.9996ZM21.425 26.096V25.804H21.025V26.096H21.425ZM20.825 26.696C21.1554 26.696 21.425 26.4265 21.425 26.096H21.025C21.025 26.2055 20.9345 26.296 20.825 26.296V26.696ZM20.225 26.096C20.225 26.4265 20.4945 26.696 20.825 26.696V26.296C20.7154 26.296 20.625 26.2055 20.625 26.096H20.225ZM20.225 25.804V26.096H20.625V25.804H20.225ZM18.717 23.94C18.717 24.9491 19.4336 25.792 20.3823 25.9994L20.4677 25.6086C19.6964 25.44 19.117 24.7548 19.117 23.94H18.717ZM19.317 23.34C18.9865 23.34 18.717 23.6095 18.717 23.94H19.117C19.117 23.8305 19.2074 23.74 19.317 23.74V23.34ZM19.917 23.94C19.917 23.6095 19.6474 23.34 19.317 23.34V23.74C19.4265 23.74 19.517 23.8305 19.517 23.94H19.917Z" fill="white" mask="url(#path-2-outside-1_909_13092)"/>
</svg>
