<svg width="24" height="24" viewBox="0 0 24 24" fill="none" xmlns="http://www.w3.org/2000/svg">
  <rect width="24" height="24" rx="4" fill="#FF6B93" />
  <path
    d="M11.8929 13.4433L11.8929 13.4433C12.1604 13.5348 12.3238 13.6169 12.4205 13.7052C12.5101 13.7869 12.5463 13.8772 12.5463 14.0067C12.5463 14.3084 12.3017 14.553 12 14.553C11.6982 14.553 11.4536 14.3084 11.4536 14.0067C11.4536 13.8231 11.3039 13.6733 11.1203 13.6733C10.9367 13.6733 10.787 13.8231 10.787 14.0067C10.787 14.559 11.1601 15.0249 11.6666 15.1717V15.2643C11.6666 15.4479 11.8164 15.5977 12 15.5977C12.1835 15.5977 12.3333 15.4479 12.3333 15.2643V15.1721C12.8401 15.0272 13.213 14.5609 13.213 14.0067C13.213 13.6488 13.0748 13.3928 12.8625 13.2047C12.655 13.0208 12.38 12.9049 12.1093 12.813C11.8619 12.7283 11.697 12.6415 11.5948 12.5485C11.497 12.4594 11.456 12.3644 11.456 12.2497C11.456 11.95 11.7008 11.7033 12.0023 11.7033C12.3041 11.7033 12.5486 11.9479 12.5486 12.2497C12.5486 12.4332 12.6984 12.583 12.882 12.583C13.0655 12.583 13.2153 12.4332 13.2153 12.2497C13.2153 11.6973 12.8421 11.2314 12.3356 11.0846V10.992C12.3356 10.8084 12.1859 10.6587 12.0023 10.6587C11.8187 10.6587 11.669 10.8084 11.669 10.992V11.0843C11.1622 11.2291 10.7893 11.6954 10.7893 12.2497C10.7893 12.6191 10.9547 12.8823 11.1765 13.0698C11.3948 13.2543 11.6684 13.3665 11.8929 13.4433Z"
    fill="white" stroke="white" stroke-width="0.2" />
  <path
    d="M14.0528 6.19921L14.0528 6.19923C14.1108 6.27973 14.1349 6.38491 14.108 6.48625L14.0528 6.19921ZM14.0528 6.19921L14.0513 6.19715C13.9876 6.11343 13.8903 6.06666 13.7873 6.06666H12.224C12.0893 6.06666 11.9616 6.14843 11.9134 6.28079L11.8057 6.55666H9.93265C9.82321 6.55666 9.71994 6.60979 9.65672 6.70247C9.59311 6.79336 9.58039 6.90993 9.62006 7.01242L9.62019 7.01275L10.3545 8.89012C9.57251 9.4494 8.92969 10.3655 8.47932 11.3702C8.01607 12.4037 7.75132 13.5423 7.75132 14.506C7.75132 15.646 8.09766 16.5106 8.81569 17.0868C9.52931 17.6594 10.5933 17.9333 12 17.9333C13.4066 17.9333 14.4707 17.6594 15.1843 17.0868C15.9023 16.5106 16.2487 15.646 16.2487 14.506C16.2487 13.515 15.9685 12.3393 15.4796 11.2831C15.0033 10.254 14.3231 9.32641 13.4968 8.79511L14.1079 6.48642L14.0528 6.19921ZM10.9436 8.55349L10.4223 7.22332H11.5483L11.4564 7.46052L11.4563 7.46076C11.3896 7.63424 11.4768 7.82435 11.6461 7.89075L11.6461 7.89076L11.6468 7.89099C11.8202 7.95771 12.0103 7.87051 12.0767 7.70117L12.0768 7.70092L12.4534 6.73332H13.354L12.8887 8.48743C12.6051 8.38273 12.3097 8.32299 12 8.32299C11.6299 8.32299 11.277 8.40577 10.9436 8.55349ZM12 8.98966C12.9205 8.98966 13.8149 9.73595 14.4866 10.8218C15.1549 11.9021 15.582 13.2876 15.582 14.5037C15.582 15.4745 15.3051 16.1559 14.7351 16.5991C14.1594 17.0468 13.2662 17.2667 12 17.2667C10.7338 17.2667 9.84057 17.0468 9.26485 16.5994C8.69488 16.1564 8.41799 15.4756 8.41799 14.506C8.41799 13.2887 8.84512 11.9027 9.51341 10.822C10.1851 9.73595 11.0795 8.98966 12 8.98966Z"
    fill="white" stroke="white" stroke-width="0.2" />
</svg>