<svg width="32" height="32" viewBox="0 0 32 32" fill="none" xmlns="http://www.w3.org/2000/svg">
  <g filter="url(#filter0_d_238_13503)">
    <rect x="4" width="24" height="24" rx="4" fill="#2940D3" shape-rendering="crispEdges" />
    <path
      d="M12.0625 12.4375H10.75C10.5179 12.4375 10.2954 12.5297 10.1313 12.6938C9.96719 12.8579 9.875 13.0804 9.875 13.3125V17.25C9.875 17.4821 9.96719 17.7046 10.1313 17.8687C10.2954 18.0328 10.5179 18.125 10.75 18.125H12.0625C12.2946 18.125 12.5171 18.0328 12.6812 17.8687C12.8453 17.7046 12.9375 17.4821 12.9375 17.25V13.3125C12.9375 13.0804 12.8453 12.8579 12.6812 12.6938C12.5171 12.5297 12.2946 12.4375 12.0625 12.4375ZM16.4375 5.875H15.125C14.8929 5.875 14.6704 5.96719 14.5063 6.13128C14.3422 6.29538 14.25 6.51794 14.25 6.75V17.25C14.25 17.4821 14.3422 17.7046 14.5063 17.8687C14.6704 18.0328 14.8929 18.125 15.125 18.125H16.4375C16.6696 18.125 16.8921 18.0328 17.0562 17.8687C17.2203 17.7046 17.3125 17.4821 17.3125 17.25V6.75C17.3125 6.51794 17.2203 6.29538 17.0562 6.13128C16.8921 5.96719 16.6696 5.875 16.4375 5.875ZM20.8125 9.375H19.5C19.2679 9.375 19.0454 9.46719 18.8813 9.63128C18.7172 9.79538 18.625 10.0179 18.625 10.25V17.25C18.625 17.4821 18.7172 17.7046 18.8813 17.8687C19.0454 18.0328 19.2679 18.125 19.5 18.125H20.8125C21.0446 18.125 21.2671 18.0328 21.4312 17.8687C21.5953 17.7046 21.6875 17.4821 21.6875 17.25V10.25C21.6875 10.0179 21.5953 9.79538 21.4312 9.63128C21.2671 9.46719 21.0446 9.375 20.8125 9.375Z"
      fill="white" />
  </g>
  <defs>
    <filter id="filter0_d_238_13503" x="0" y="0" width="32" height="32" filterUnits="userSpaceOnUse"
      color-interpolation-filters="sRGB">
      <feFlood flood-opacity="0" result="BackgroundImageFix" />
      <feColorMatrix in="SourceAlpha" type="matrix" values="0 0 0 0 0 0 0 0 0 0 0 0 0 0 0 0 0 0 127 0"
        result="hardAlpha" />
      <feOffset dy="4" />
      <feGaussianBlur stdDeviation="2" />
      <feComposite in2="hardAlpha" operator="out" />
      <feColorMatrix type="matrix" values="0 0 0 0 0 0 0 0 0 0 0 0 0 0 0 0 0 0 0.25 0" />
      <feBlend mode="normal" in2="BackgroundImageFix" result="effect1_dropShadow_238_13503" />
      <feBlend mode="normal" in="SourceGraphic" in2="effect1_dropShadow_238_13503" result="shape" />
    </filter>
  </defs>
</svg>