<svg width="41" height="41" viewBox="0 0 41 41" fill="none" xmlns="http://www.w3.org/2000/svg">
<rect x="0.824951" y="0.5" width="40" height="40" rx="4" fill="#FF6B93"/>
<path d="M15.225 25.3H12.985C12.3664 25.3 11.865 24.7627 11.865 24.1V21.7C11.865 21.0373 12.3664 20.5 12.985 20.5H15.225C15.8436 20.5 16.345 21.0373 16.345 21.7V24.1C16.345 24.7627 15.8436 25.3 15.225 25.3ZM23.065 24.1V16.9C23.065 16.2373 22.5636 15.7 21.945 15.7H19.705C19.0864 15.7 18.585 16.2373 18.585 16.9V24.1C18.585 24.7627 19.0864 25.3 19.705 25.3H21.945C22.5636 25.3 23.065 24.7627 23.065 24.1ZM32.025 29.5V28.3C32.025 27.9686 31.7743 27.7 31.465 27.7H10.185C9.87572 27.7 9.625 27.9686 9.625 28.3V29.5C9.625 29.8314 9.87572 30.1 10.185 30.1H31.465C31.7743 30.1 32.025 29.8314 32.025 29.5ZM29.785 24.1V12.1C29.785 11.4373 29.2836 10.9 28.665 10.9H26.425C25.8064 10.9 25.305 11.4373 25.305 12.1V24.1C25.305 24.7627 25.8064 25.3 26.425 25.3H28.665C29.2836 25.3 29.785 24.7627 29.785 24.1Z" fill="white"/>
</svg>