<svg width="41" height="41" viewBox="0 0 41 41" fill="none" xmlns="http://www.w3.org/2000/svg">
<rect x="0.824951" y="0.5" width="40" height="40" rx="4" fill="#FF9777"/>
<path d="M30.1425 18.4986C29.5523 17.811 28.5796 17.2266 27.3263 16.8345C27.3219 16.8205 27.3157 16.8076 27.308 16.7957C27.3133 16.7888 27.3181 16.7819 27.3223 16.7755C27.3303 16.7635 27.3374 16.7522 27.3442 16.7412C27.3629 16.7111 27.3799 16.6836 27.4105 16.6531L27.411 16.6537L27.4175 16.645C28.3027 15.4649 28.7019 14.2766 28.6022 13.1806L28.6023 13.1805L28.6017 13.1767C28.5008 12.471 28.0979 11.8705 27.5031 11.3746L27.5031 11.3746L27.502 11.3737C26.5006 10.5725 25.0007 10.5718 23.9982 11.3716C23.3955 11.7748 22.9965 12.4758 22.896 13.1753C22.6962 14.2763 23.0989 15.4676 24.0824 16.648L24.0822 16.6482L24.087 16.653C24.1923 16.7583 24.3268 16.8405 24.4664 16.8684C24.6087 16.8968 24.7573 16.8684 24.8755 16.7503C24.9809 16.645 25.0632 16.5105 25.0911 16.3709C25.1192 16.2306 25.092 16.084 24.9779 15.9667C24.3001 14.9971 23.9268 14.1425 24.019 13.3942C24.1142 12.9208 24.3021 12.5503 24.6723 12.2722L24.6724 12.2723L24.6753 12.2698C25.2308 11.8072 26.1671 11.8027 26.8256 12.2727C27.1957 12.5508 27.3834 12.9211 27.4786 13.3942C27.5705 14.1412 27.1991 14.9934 26.5241 15.9604C26.2209 16.1669 26.015 16.4784 26.015 16.8924V16.9046L26.0188 16.9161C26.1209 17.2219 26.3249 17.529 26.6332 17.7348L26.6521 17.7474H26.6748C26.6906 17.7474 26.6958 17.7506 26.7194 17.7742L26.721 17.7759C26.745 17.7999 26.7851 17.84 26.8565 17.8445C28.0183 18.2324 28.8699 18.615 29.3419 19.1762C29.44 19.3722 29.5252 19.5482 29.5252 19.7199C29.5252 19.8064 29.5032 19.918 29.4585 20.0184C29.4134 20.1198 29.3499 20.1998 29.274 20.2376L29.2739 20.2377C29.0806 20.3345 28.8904 20.4295 28.6058 20.5245C28.1185 20.6223 27.6398 20.7173 27.1627 20.7173H25.1152C24.9519 20.7173 24.81 20.7721 24.7087 20.8734C24.6074 20.9747 24.5526 21.1166 24.5526 21.2798C24.5526 21.4431 24.6073 21.585 24.7086 21.6863C24.8098 21.7876 24.9518 21.8424 25.1152 21.8424H27.1627C27.4582 21.8424 27.7533 21.8178 28.0448 21.7935L28.0463 21.7934C28.3393 21.7689 28.6287 21.7448 28.9175 21.7448H28.9267L28.9356 21.7426C29.3388 21.6421 29.641 21.4404 29.9318 21.2463L29.9343 21.2447L29.9343 21.2447L29.9376 21.2423C30.1588 21.0764 30.3384 20.8613 30.462 20.614C30.5857 20.3667 30.65 20.094 30.65 19.8175C30.65 19.3136 30.4498 18.8073 30.1425 18.4986ZM15.022 17.5365L15.0222 17.5363L15.0276 17.5327C15.3084 17.3459 15.6293 17.1324 15.6352 16.7095C15.6879 16.5361 15.6264 16.3695 15.5399 16.2211C15.4951 16.1444 15.4413 16.0686 15.3879 15.9953C15.3769 15.9803 15.366 15.9654 15.3552 15.9506C15.3124 15.8922 15.2707 15.8354 15.2327 15.7784L15.2327 15.7784L15.2317 15.777C14.5506 14.804 14.1757 13.9472 14.2696 13.197L14.2702 13.1971V13.1877C14.2702 12.8336 14.5387 12.4633 14.9219 12.1755C15.5782 11.7075 16.42 11.7075 17.0759 12.1755C17.456 12.4609 17.7277 12.8312 17.7277 13.2852H17.7269L17.7284 13.2959C17.8219 13.95 17.5422 14.9035 16.7718 15.8676C16.6562 15.9853 16.6285 16.1326 16.6567 16.2737C16.6847 16.4133 16.767 16.5479 16.8724 16.6533L16.881 16.6619L16.8918 16.6674C17.1086 16.7759 17.4378 16.7788 17.6609 16.5558L17.6614 16.5563L17.6678 16.5477C18.553 15.3676 18.9522 14.1793 18.8525 13.0833L18.8526 13.0833L18.852 13.0795C18.7511 12.3738 18.3482 11.7732 17.7534 11.2774L17.7534 11.2774L17.7522 11.2764C16.7506 10.4752 15.251 10.4745 14.2484 11.2744C13.6457 11.6774 13.2467 12.3781 13.1464 13.0774C12.9469 14.0797 13.4444 15.361 14.4142 16.5315C14.4217 16.5909 14.4505 16.6433 14.4737 16.678C14.4834 16.6926 14.493 16.7054 14.5016 16.716C14.4982 16.7176 14.4941 16.7187 14.4902 16.7193L14.4861 16.7198H14.476L14.4652 16.7231C13.1924 17.1147 12.2043 17.6069 11.5095 18.3017L11.5089 18.3012L11.5025 18.3098C11.2052 18.7063 11 19.112 11 19.6223C11 19.8801 11.0769 20.1597 11.2028 20.4116C11.3287 20.6634 11.5061 20.8928 11.7124 21.0474L11.7123 21.0475L11.7158 21.0499L11.721 21.0533C12.0097 21.2457 12.3097 21.4456 12.7094 21.5465C13.207 21.7445 13.8002 21.8424 14.4873 21.8424H16.5037L16.504 21.8427H16.5351C16.6984 21.8427 16.8403 21.7879 16.9416 21.6866C17.0429 21.5854 17.0977 21.4434 17.0977 21.2802C17.0977 21.1169 17.043 20.975 16.9417 20.8737C16.8405 20.7724 16.6985 20.7176 16.5351 20.7176H14.4876C14.0093 20.7176 13.5338 20.622 13.1564 20.4331L13.1567 20.4324L13.1465 20.429C12.8629 20.3347 12.6729 20.24 12.4804 20.1441L12.4737 20.1407C12.3129 20.0602 12.2227 19.898 12.2227 19.6226C12.2227 19.4521 12.3069 19.2774 12.4044 19.0823C12.975 18.5152 13.7363 18.1323 14.7978 17.6494C14.862 17.6444 14.919 17.6134 14.9559 17.5887C14.9773 17.5744 14.995 17.5603 15.0073 17.5497C15.0135 17.5443 15.0185 17.5398 15.022 17.5365Z" fill="white" stroke="white" stroke-width="0.15"/>
<path d="M22.6309 23.6166C22.6111 23.6048 22.5927 23.5942 22.5765 23.5852C22.5786 23.5815 22.5809 23.5776 22.5834 23.5734C22.6157 23.5195 22.6843 23.427 22.828 23.2833L22.8285 23.2839L22.835 23.2753C24.01 21.7082 24.608 20.1286 24.4093 18.7355C24.3091 17.8346 23.8085 17.0378 23.0151 16.4423L23.0151 16.4422C22.4146 15.992 21.6178 15.7693 20.8128 15.7693C20.0076 15.7693 19.1877 15.9921 18.5397 16.4406L18.5396 16.4405L18.5373 16.4423C17.7393 17.0413 17.3422 17.8388 17.1443 18.7286L17.1441 18.7286L17.1433 18.7343C16.9442 20.1292 17.5435 21.6125 18.8155 23.2755L18.815 23.2759L18.822 23.283L19.0614 23.5227L18.8346 23.7496C17.0839 24.3346 15.807 25.0209 15.0164 25.9104L15.0163 25.9103L15.0139 25.9133C14.6151 26.4116 14.4123 26.9153 14.4123 27.5202C14.4123 28.2155 14.7088 28.9269 15.3204 29.2393C15.6233 29.5381 16.0222 29.7355 16.5061 29.9294C17.2019 30.2272 17.9931 30.3251 18.8751 30.3251H22.8725C23.6588 30.3251 24.4449 30.227 25.2307 30.0304L25.2308 30.0311L25.2403 30.0273C25.7279 29.8321 26.1291 29.6334 26.4325 29.3312C26.9387 28.9244 27.2377 28.22 27.2377 27.5202C27.2377 26.9209 27.0384 26.3159 26.6322 25.9087C25.8414 25.02 24.5647 24.334 22.8148 23.7493C22.7604 23.6984 22.688 23.6509 22.6309 23.6166ZM19.3626 24.5951L19.4157 24.6481L19.4157 24.6481C19.4611 24.6026 19.5106 24.5557 19.5614 24.5075C19.6671 24.4072 19.7785 24.3016 19.8706 24.1927C20.0075 24.0309 20.1175 23.8456 20.12 23.6275C20.2211 23.1051 19.9034 22.7874 19.6182 22.5022L19.6149 22.4989C18.6472 21.1423 18.1729 19.8955 18.2669 18.8512C18.3624 18.1859 18.6459 17.6237 19.2076 17.2484C19.6856 16.962 20.2566 16.7724 20.825 16.7724C21.3921 16.7724 21.9617 16.9611 22.439 17.2466C23.0081 17.722 23.2886 18.1924 23.3832 18.8512C23.4773 19.8969 23.0019 21.241 22.0361 22.498C21.8884 22.646 21.7391 22.8202 21.626 23.0086C21.5123 23.198 21.4324 23.4065 21.4324 23.6199C21.4324 23.8412 21.5432 24.0288 21.6817 24.1925C21.7744 24.302 21.8864 24.4082 21.9926 24.5089C22.043 24.5566 22.092 24.6031 22.1371 24.6481L22.1591 24.6701H22.1901C22.2057 24.6701 22.2107 24.6732 22.2344 24.6969L22.236 24.6985C22.26 24.7225 22.2999 24.7624 22.3711 24.7672C24.0219 25.3505 25.1714 25.9296 25.8384 26.692L25.845 26.6995L25.8533 26.705C26.1148 26.8794 26.2102 27.2372 26.2102 27.5202C26.2102 27.8883 26.025 28.2533 25.756 28.4326L25.756 28.4326C25.4627 28.6283 25.1803 28.8161 24.8043 28.9098L24.8043 28.9095L24.7987 28.9114C24.2228 29.1036 23.5483 29.2003 22.8725 29.2003H18.8751C18.199 29.2003 17.5248 29.1036 16.9489 28.9114L16.9489 28.9112L16.9433 28.9098C16.5606 28.8144 16.1852 28.6241 16.003 28.4419L15.9978 28.4367L15.9916 28.4326C15.7226 28.2533 15.5374 27.8883 15.5374 27.5202C15.5374 27.2442 15.6289 26.8748 15.7194 26.6869C16.4873 25.9219 17.5443 25.2498 19.1794 24.7673C19.2459 24.7638 19.3052 24.7317 19.3433 24.7063C19.3646 24.692 19.3823 24.6779 19.3947 24.6673C19.4009 24.6619 19.4059 24.6574 19.4094 24.6541L19.4137 24.6501L19.415 24.6488L19.4154 24.6484L19.4156 24.6482L19.4156 24.6482L19.4156 24.6481L19.3626 24.5951Z" fill="white" stroke="white" stroke-width="0.15"/>
</svg>