<svg width="24" height="24" viewBox="0 0 24 24" fill="none" xmlns="http://www.w3.org/2000/svg">
<rect width="24" height="24" rx="4" fill="#2940D3"/>
<path d="M8.0625 12.4375H6.75C6.51794 12.4375 6.29538 12.5297 6.13128 12.6938C5.96719 12.8579 5.875 13.0804 5.875 13.3125V17.25C5.875 17.4821 5.96719 17.7046 6.13128 17.8687C6.29538 18.0328 6.51794 18.125 6.75 18.125H8.0625C8.29456 18.125 8.51712 18.0328 8.68122 17.8687C8.84531 17.7046 8.9375 17.4821 8.9375 17.25V13.3125C8.9375 13.0804 8.84531 12.8579 8.68122 12.6938C8.51712 12.5297 8.29456 12.4375 8.0625 12.4375ZM12.4375 5.875H11.125C10.8929 5.875 10.6704 5.96719 10.5063 6.13128C10.3422 6.29538 10.25 6.51794 10.25 6.75V17.25C10.25 17.4821 10.3422 17.7046 10.5063 17.8687C10.6704 18.0328 10.8929 18.125 11.125 18.125H12.4375C12.6696 18.125 12.8921 18.0328 13.0562 17.8687C13.2203 17.7046 13.3125 17.4821 13.3125 17.25V6.75C13.3125 6.51794 13.2203 6.29538 13.0562 6.13128C12.8921 5.96719 12.6696 5.875 12.4375 5.875ZM16.8125 9.375H15.5C15.2679 9.375 15.0454 9.46719 14.8813 9.63128C14.7172 9.79538 14.625 10.0179 14.625 10.25V17.25C14.625 17.4821 14.7172 17.7046 14.8813 17.8687C15.0454 18.0328 15.2679 18.125 15.5 18.125H16.8125C17.0446 18.125 17.2671 18.0328 17.4312 17.8687C17.5953 17.7046 17.6875 17.4821 17.6875 17.25V10.25C17.6875 10.0179 17.5953 9.79538 17.4312 9.63128C17.2671 9.46719 17.0446 9.375 16.8125 9.375Z" fill="white"/>
</svg>
