<svg width="24" height="24" viewBox="0 0 24 24" fill="none" xmlns="http://www.w3.org/2000/svg">
<rect width="24" height="24" rx="4" fill="#2CC5BD"/>
<path d="M10.3492 7.91667L11.0025 8.57C11.3304 8.89828 11.7752 9.08292 12.2392 9.08333H14.9167V14.3333H6.75004V7.91667H10.3492ZM10.5942 6.75H6.75004C6.10571 6.75 5.58337 7.27233 5.58337 7.91667V14.3333C5.58337 14.9777 6.10571 15.5 6.75004 15.5H14.9167C15.561 15.5 16.0834 14.9777 16.0834 14.3333V9.08333C16.0834 8.439 15.561 7.91667 14.9167 7.91667H12.2392C12.0862 7.91602 11.9395 7.85527 11.8309 7.7475L11.0025 6.91917C10.8939 6.8114 10.7472 6.75064 10.5942 6.75ZM17.25 10.25V15.5C17.25 16.1443 16.7277 16.6667 16.0834 16.6667H7.91671C7.91671 17.311 8.43904 17.8333 9.08337 17.8333H16.0834C17.372 17.8333 18.4167 16.7887 18.4167 15.5V11.4167C18.4167 10.7723 17.8944 10.25 17.25 10.25Z" fill="white"/>
</svg>
