<svg width="24" height="24" viewBox="0 0 24 24" fill="none" xmlns="http://www.w3.org/2000/svg">
  <rect width="24" height="24" rx="4" fill="#FF9777" />
  <g clip-path="url(#clip0_238_13537)">
    <path
      d="M12.1094 11.9555C13.8328 11.9555 15.2299 10.5585 15.2299 8.83506C15.2299 7.11166 13.8328 5.71457 12.1094 5.71457C10.386 5.71457 8.98889 7.11166 8.98889 8.83506C8.98889 10.5585 10.386 11.9555 12.1094 11.9555Z"
      stroke="white" stroke-width="1.5" stroke-linecap="round" stroke-linejoin="round" />
    <path
      d="M12.1094 13.0903C10.4623 13.1354 8.84826 13.5627 7.39462 14.3385C7.02056 14.5283 6.70642 14.818 6.48708 15.1756C6.26774 15.5331 6.15179 15.9445 6.1521 16.3639V16.7781C6.1521 17.0038 6.24176 17.2203 6.40136 17.3799C6.56097 17.5395 6.77743 17.6292 7.00314 17.6292H17.2156C17.4414 17.6292 17.6578 17.5395 17.8174 17.3799C17.977 17.2203 18.0667 17.0038 18.0667 16.7781V16.3639C18.067 15.9445 17.951 15.5331 17.7317 15.1756C17.5124 14.818 17.1982 14.5283 16.8242 14.3385C15.3705 13.5627 13.7565 13.1354 12.1094 13.0903V13.0903Z"
      stroke="white" stroke-width="1.5" stroke-linecap="round" stroke-linejoin="round" />
  </g>
  <defs>
    <clipPath id="clip0_238_13537">
      <rect width="14" height="14" fill="white" transform="translate(5 5)" />
    </clipPath>
  </defs>
</svg>