<svg width="100" height="100" viewBox="0 0 100 100" fill="none" xmlns="http://www.w3.org/2000/svg">
<rect width="100" height="100" fill="#002FA7"/>
<path d="M76.0651 44.3603C77.358 44.3603 78.4061 43.3842 78.4061 42.1801C78.4061 40.9761 77.358 40 76.0651 40C74.7722 40 73.7241 40.9761 73.7241 42.1801C73.7241 43.3842 74.7722 44.3603 76.0651 44.3603Z" fill="white"/>
<path d="M18.5085 45.6294C17.0234 45.6294 15.5717 46.0395 14.337 46.8078C13.1022 47.5762 12.1398 48.6683 11.5716 49.946C11.0033 51.2237 10.8546 52.6297 11.1443 53.9861C11.434 55.3425 12.1491 56.5885 13.1992 57.5664C14.2493 58.5443 15.5871 59.2103 17.0436 59.4801C18.5001 59.7499 20.0098 59.6114 21.3818 59.0822C22.7538 58.5529 23.9265 57.6567 24.7515 56.5068C25.5766 55.3568 26.0169 54.0049 26.0169 52.6219C26.0169 51.7036 25.8227 50.7943 25.4454 49.946C25.068 49.0976 24.515 48.3267 23.8178 47.6774C23.1205 47.0281 22.2928 46.513 21.3818 46.1616C20.4709 45.8102 19.4945 45.6294 18.5085 45.6294V45.6294ZM18.5085 56.3511C17.7165 56.3511 16.9423 56.1324 16.2838 55.7226C15.6253 55.3129 15.112 54.7304 14.8089 54.049C14.5059 53.3676 14.4266 52.6178 14.5811 51.8944C14.7356 51.171 15.1169 50.5065 15.677 49.985C16.237 49.4634 16.9505 49.1082 17.7273 48.9644C18.504 48.8205 19.3092 48.8943 20.0409 49.1766C20.7726 49.4588 21.398 49.9368 21.838 50.5501C22.278 51.1633 22.5128 51.8843 22.5128 52.6219C22.5115 53.6106 22.0892 54.5584 21.3385 55.2575C20.5879 55.9566 19.5701 56.3499 18.5085 56.3511V56.3511Z" fill="white"/>
<path d="M65.984 45.6294C64.5153 45.6249 63.0778 46.024 61.8516 46.7768V43.4263C61.8516 43.0135 61.7642 42.6048 61.5945 42.2235C61.4248 41.8422 61.1761 41.4957 60.8626 41.204C60.5491 40.9122 60.1769 40.6808 59.7673 40.5231C59.3578 40.3653 58.9188 40.2843 58.4756 40.2846V52.6219C58.4751 54.0056 58.9153 55.3583 59.7404 56.5089C60.5655 57.6596 61.7385 58.5565 63.1111 59.0862C64.4836 59.6159 65.994 59.7546 67.4512 59.4848C68.9084 59.2149 70.247 58.5487 71.2975 57.5703C72.3481 56.5919 73.0635 55.3454 73.3532 53.9883C73.643 52.6312 73.494 51.2246 72.9252 49.9464C72.3564 48.6681 71.3934 47.5757 70.1578 46.8073C68.9223 46.0388 67.4698 45.6289 65.984 45.6294V45.6294ZM65.984 56.3511C65.1922 56.3507 64.4182 56.1316 63.76 55.7215C63.1018 55.3115 62.589 54.7289 62.2863 54.0474C61.9836 53.366 61.9046 52.6162 62.0594 51.893C62.2142 51.1697 62.5958 50.5055 63.1559 49.9842C63.716 49.4629 64.4295 49.1079 65.2062 48.9642C65.9829 48.8205 66.7879 48.8945 67.5195 49.1768C68.251 49.4591 68.8763 49.9371 69.3162 50.5503C69.7561 51.1635 69.9909 51.8845 69.9909 52.6219C69.9896 53.611 69.5669 54.5592 68.8157 55.2583C68.0645 55.9575 67.0461 56.3505 65.984 56.3511V56.3511Z" fill="white"/>
<path d="M74.801 45.5743V59.2748H78.4062V48.9317C78.4062 48.0413 78.0263 47.1873 77.3502 46.5577C76.6742 45.928 75.7572 45.5743 74.801 45.5743V45.5743Z" fill="white"/>
<path d="M34.2523 45.6294C32.832 45.628 31.4491 46.0538 30.3096 46.8434C30.0275 46.3267 29.5973 45.8928 29.0666 45.5898C28.536 45.2868 27.9257 45.1266 27.3032 45.1268V59.1693H30.933V52.5141C30.933 50.568 32.2809 48.9845 34.24 48.9845C36.199 48.9845 37.5494 50.568 37.5494 52.5141V59.1807H41.1768V52.4934C41.1792 48.6999 38.0768 45.6294 34.2523 45.6294Z" fill="white"/>
<path d="M49.9642 45.7716C48.9558 45.7686 47.9568 45.9515 47.0247 46.3098C46.0926 46.6681 45.246 47.1948 44.5335 47.8593C43.8211 48.5239 43.2569 49.3133 42.8737 50.1819C42.4904 51.0505 42.2956 51.9812 42.3005 52.9202C42.3005 56.8881 45.4153 60 49.6759 60C53.0765 60 54.5748 59.362 56.6028 57.8634L55.1243 55.899C54.0573 56.6517 52.6896 57.2759 50.0357 57.2507C48.2269 57.2507 46.4281 55.7085 46.2654 54.0562H57.1228C57.1702 53.522 57.185 52.9856 57.1671 52.4498C57.1646 48.4704 54.2273 45.7716 49.9642 45.7716ZM46.2876 51.6833C46.2876 50.2352 47.2881 48.4704 49.7991 48.4704C52.6403 48.4704 53.1997 50.1136 53.3106 51.6833H46.2876Z" fill="white"/>
<path d="M89.9091 48.498V45.5743H86.4592V45.253C86.4592 44.34 86.0698 43.4645 85.3766 42.8189C84.6834 42.1733 83.7432 41.8107 82.7629 41.8107V45.5743H79.6309V48.498H82.7703V54.7424C82.7703 54.7424 82.5238 58.5542 85.0521 59.3322C85.0521 59.3322 87.5484 60.0367 89.7662 59.0361L89.5666 56.3878C89.5666 56.3878 88.088 56.9937 87.1023 56.3878C87.1023 56.3878 86.5109 56.0161 86.4641 54.7309V48.498H89.9091Z" fill="white"/>
</svg>
