<svg width="363" height="133" viewBox="0 0 363 133" fill="none" xmlns="http://www.w3.org/2000/svg">
<path d="M281.7 44.4C286.947 44.4 291.2 40.1467 291.2 34.9C291.2 29.6533 286.947 25.4 281.7 25.4C276.453 25.4 272.2 29.6533 272.2 34.9C272.2 40.1467 276.453 44.4 281.7 44.4Z" fill="#002FA7"/>
<path d="M48.2 50C31.4 50 17.7 63.6 17.7 80.5C17.7 97.3 31.3 111 48.2 111C65.1 111 78.6999 97.4 78.6999 80.5C78.6999 80.5 78.6999 80.5 78.6999 80.4C78.5999 63.6 65 50 48.2 50ZM48.2 96.7C39.2 96.7 31.9 89.4 31.9 80.4C31.9 71.4 39.2 64.1 48.2 64.1C57.2 64.1 64.4 71.4 64.5 80.3C64.4 89.4 57.1 96.7 48.2 96.7Z" fill="#002FA7"/>
<path d="M240.8 50C234.8 50 229 51.7 224 55V40.4C224 32.8 217.9 26.7 210.3 26.7V80.5C210.3 97.3 223.9 111 240.7 111C257.5 111 271.2 97.4 271.2 80.6C271.3 63.7 257.6 50 240.8 50ZM240.8 96.7C231.8 96.7 224.5 89.4 224.5 80.5C224.5 71.5 231.8 64.2 240.7 64.2C249.7 64.2 257 71.5 257 80.4C257 89.4 249.8 96.7 240.8 96.7Z" fill="#002FA7"/>
<path d="M276.6 49.7V109.4H291.2V64.3C291.2 56.3 284.7 49.7 276.6 49.7Z" fill="#002FA7"/>
<path d="M112.1 50C106.3 50 100.7 51.9 96.0999 55.3C93.7999 50.7 89.0999 47.8 83.8999 47.8V109H98.5999V80C98.5999 71.5 104.1 64.6 112 64.6C119.9 64.6 125.4 71.5 125.4 80V109H140.1V79.9C140.1 63.3 127.6 50 112.1 50Z" fill="#002FA7"/>
<path d="M175.8 50.6C158.7 50.5 144.8 64.4 144.7 81.5C144.7 81.6 144.7 81.7 144.7 81.8C144.7 99.1 157.3 112.6 174.6 112.6C188.4 112.6 194.5 109.8 202.7 103.3L196.7 94.7C192.4 98 186.8 100.7 176.1 100.6C168.7 100.6 161.5 93.9 160.8 86.7H204.9C205.1 84.4 205.1 82 205.1 79.7C205 62.3 193.1 50.6 175.8 50.6ZM160.9 76.3C160.9 70 165 62.3 175.2 62.3C186.7 62.3 189 69.5 189.4 76.3H160.9Z" fill="#002FA7"/>
<path d="M337.9 62.5V49.7H324V48.3C324 40 317.3 33.3 309 33.3V49.7H296.2V62.4H308.9V89.6C308.9 89.6 307.9 106.2 318.1 109.6C318.1 109.6 328.2 112.7 337.2 108.3L336.4 96.8C336.4 96.8 330.4 99.4 326.4 96.8C326.4 96.8 324 95.2 323.8 89.6V62.5H337.9Z" fill="#002FA7"/>
</svg>
