<?xml version="1.0" encoding="UTF-8"?><svg id="_图层_1" xmlns="http://www.w3.org/2000/svg" viewBox="0 0 300 300"><defs><style>.cls-1{fill:#fff;}.cls-2{fill:#ffbb74;}.cls-3{fill:#3027ff;}</style></defs><rect class="cls-2" x="-.26" y="-.26" width="300.52" height="300.52"/><g><path class="cls-3" d="M151.46,2.8V-.13C68.68-.13,1.33,67.22,1.33,150s67.35,150.13,150.13,150.13v-2.93c81.17,0,147.2-66.03,147.2-147.2S232.63,2.8,151.46,2.8Zm0,292.94v-2.93c-78.74,0-142.81-64.06-142.81-142.81S72.72,7.19,151.46,7.19v-2.93c80.36,0,145.74,65.38,145.74,145.74s-65.38,145.74-145.74,145.74Z"/><path class="cls-3" d="M151.46,17.45v-2.93C76.76,14.52,15.98,75.29,15.98,150s60.78,135.48,135.48,135.48v-2.93c73.09,0,132.55-59.46,132.55-132.55S224.56,17.45,151.46,17.45Zm0,263.64v-2.93c-70.67,0-128.16-57.49-128.16-128.16S80.8,21.84,151.46,21.84v-2.93c72.28,0,131.09,58.81,131.09,131.09s-58.81,131.09-131.09,131.09Z"/><path class="cls-3" d="M151.46,32.09v-2.93c-66.63,0-120.84,54.21-120.84,120.84s54.21,120.84,120.84,120.84v-2.93c65.01,0,117.91-52.89,117.91-117.91s-52.89-117.91-117.91-117.91Zm0,234.35v-2.93c-62.59,0-113.51-50.92-113.51-113.51S88.87,36.49,151.46,36.49v-2.93c64.21,0,116.44,52.24,116.44,116.44s-52.24,116.44-116.44,116.44Z"/><path class="cls-3" d="M151.46,46.74v-2.93c-58.55,0-106.19,47.64-106.19,106.19s47.64,106.19,106.19,106.19v-2.93c56.94,0,103.26-46.32,103.26-103.26s-46.32-103.26-103.26-103.26Zm0,205.06v-2.93c-54.52,0-98.87-44.35-98.87-98.87S96.95,51.13,151.46,51.13v-2.93c56.13,0,101.8,45.67,101.8,101.8s-45.67,101.8-101.8,101.8Z"/><path class="cls-3" d="M151.46,61.39v-2.93c-50.48,0-91.54,41.07-91.54,91.54s41.07,91.54,91.54,91.54v-2.93c48.86,0,88.61-39.75,88.61-88.61s-39.75-88.61-88.61-88.61Zm0,175.76v-2.93c-46.44,0-84.22-37.78-84.22-84.22s37.78-84.22,84.22-84.22v-2.93c48.05,0,87.15,39.09,87.15,87.15s-39.09,87.15-87.15,87.15Z"/></g><circle class="cls-3" cx="150" cy="150" r="75"/><circle class="cls-1" cx="150" cy="150" r="40"/></svg>