<?xml version="1.0" encoding="UTF-8"?><svg id="_图层_1" xmlns="http://www.w3.org/2000/svg" viewBox="0 0 300 300"><defs><style>.cls-1{fill:#002fa7;}.cls-2{fill:#3027ff;}.cls-3{fill:none;stroke:#002fa7;stroke-linecap:round;stroke-linejoin:round;stroke-width:6px;}</style></defs><g><path class="cls-2" d="M150,180c16.57,0,30-13.43,30-30s-13.43-30-30-30V60c49.71,0,90,40.29,90,90s-40.29,90-90,90v-60Z"/><path class="cls-1" d="M150,300c-43.88,0-150,0-150,0,0,0,0-111.04,0-150C0,107.52,0,0,0,0,0,0,109.63,0,150,0V60c-49.71,0-90,40.29-90,90,0,49.71,40.29,90,90,90v60Z"/><path class="cls-1" d="M150,180c-16.57,0-30-13.43-30-30s13.43-30,30-30v60Z"/></g><line class="cls-3" x1="201.3" y1="9.05" x2="188.48" y2="44.28"/><line class="cls-3" x1="246.42" y1="35.09" x2="222.31" y2="63.82"/><line class="cls-3" x1="279.9" y1="75" x2="247.43" y2="93.75"/><line class="cls-3" x1="297.72" y1="123.95" x2="260.79" y2="130.46"/><line class="cls-3" x1="297.72" y1="176.05" x2="260.79" y2="169.54"/><line class="cls-3" x1="279.9" y1="225" x2="247.43" y2="206.25"/><line class="cls-3" x1="246.42" y1="264.91" x2="222.31" y2="236.18"/><line class="cls-3" x1="201.3" y1="290.95" x2="188.48" y2="255.72"/></svg>