<?xml version="1.0" encoding="UTF-8"?><svg id="_图层_1" xmlns="http://www.w3.org/2000/svg" viewBox="0 0 300 300"><defs><style>.cls-1{stroke-width:3px;}.cls-1,.cls-2{fill:none;stroke:#fff;stroke-miterlimit:10;}.cls-3{fill:#002fa7;}.cls-4{fill:#3027ff;}.cls-5{fill:#77c271;}</style></defs><rect class="cls-3" x="-.26" y="-.26" width="300.52" height="300.52"/><g><path class="cls-5" d="M150,300C67.16,300,0,232.84,0,150S67.16,0,150,0V300Z"/><path class="cls-3" d="M150,37.5c62.13,0,112.5,50.37,112.5,112.5s-50.37,112.5-112.5,112.5V37.5Z"/><g><line class="cls-1" x1="150" y1="0" x2="150" y2="37.5"/><line class="cls-1" x1="201.3" y1="9.05" x2="188.48" y2="44.28"/><line class="cls-1" x1="246.42" y1="35.09" x2="222.31" y2="63.82"/><line class="cls-1" x1="279.9" y1="75" x2="247.43" y2="93.75"/><line class="cls-1" x1="297.72" y1="123.95" x2="260.79" y2="130.46"/><line class="cls-1" x1="297.72" y1="176.05" x2="260.79" y2="169.54"/><line class="cls-1" x1="279.9" y1="225" x2="247.43" y2="206.25"/><line class="cls-1" x1="246.42" y1="264.91" x2="222.31" y2="236.18"/><line class="cls-1" x1="201.3" y1="290.95" x2="188.48" y2="255.72"/><line class="cls-1" x1="150" y1="300" x2="150" y2="262.5"/></g><line class="cls-2" x1="176.05" y1="2.28" x2="169.54" y2="39.21"/><line class="cls-2" x1="225" y1="20.1" x2="206.25" y2="52.57"/><line class="cls-2" x1="264.91" y1="53.58" x2="236.18" y2="77.69"/><line class="cls-2" x1="290.95" y1="98.7" x2="255.72" y2="111.52"/><line class="cls-2" x1="300" y1="150" x2="262.5" y2="150"/><line class="cls-2" x1="290.95" y1="201.3" x2="255.72" y2="188.48"/><line class="cls-2" x1="264.91" y1="246.42" x2="236.18" y2="222.31"/><line class="cls-2" x1="225" y1="279.9" x2="206.25" y2="247.43"/><line class="cls-2" x1="176.05" y1="297.72" x2="169.54" y2="260.79"/></g><circle class="cls-4" cx="150" cy="150" r="75"/></svg>