<?xml version="1.0" encoding="UTF-8"?><svg id="_图层_1" xmlns="http://www.w3.org/2000/svg" viewBox="0 0 300 300"><defs><style>.cls-1{fill:#002fa7;}.cls-2{fill:#fff;}.cls-3{fill:#3027ff;}</style></defs><rect class="cls-3" x="-.26" y="-.26" width="300.52" height="300.52"/><g><path class="cls-2" d="M201.4,291.07c-.81,0-1.57-.49-1.87-1.29L96.73,11.56c-.38-1.02,.16-2.14,1.19-2.51,1.03-.37,2.17,.15,2.55,1.17l102.81,278.23c.38,1.02-.16,2.14-1.19,2.51-.22,.08-.45,.12-.68,.12Z"/><path class="cls-2" d="M246.61,265.36c-.57,0-1.13-.24-1.52-.7L51.87,37.85c-.71-.83-.6-2.06,.25-2.76,.84-.7,2.1-.59,2.8,.24l193.21,226.81c.71,.83,.6,2.06-.25,2.76-.37,.31-.83,.46-1.28,.46Z"/><path class="cls-2" d="M280.16,225.98c-.34,0-.68-.08-.99-.26L18.85,77.68c-.95-.54-1.28-1.74-.73-2.68,.55-.94,1.76-1.26,2.72-.72L281.15,222.32c.95,.54,1.28,1.74,.73,2.68-.37,.63-1.04,.98-1.72,.98Z"/><path class="cls-2" d="M298.01,177.67c-.11,0-.23-.01-.35-.03L1.64,126.22c-1.08-.19-1.8-1.2-1.61-2.27,.19-1.06,1.22-1.78,2.3-1.59l296.02,51.41c1.08,.19,1.8,1.2,1.61,2.27-.17,.95-1.01,1.62-1.96,1.62Z"/><path class="cls-2" d="M1.99,177.67c-.95,0-1.79-.67-1.96-1.62-.19-1.07,.53-2.08,1.61-2.27l296.02-51.41c1.09-.19,2.11,.52,2.3,1.59,.19,1.07-.53,2.08-1.61,2.27L2.33,177.64c-.12,.02-.23,.03-.35,.03Z"/><path class="cls-2" d="M19.84,225.98c-.69,0-1.36-.35-1.72-.98-.55-.94-.22-2.13,.73-2.68L279.17,74.28c.95-.54,2.17-.22,2.72,.72,.55,.94,.22,2.13-.73,2.68L20.84,225.72c-.31,.18-.65,.26-.99,.26Z"/><path class="cls-2" d="M53.39,265.36c-.45,0-.9-.15-1.28-.46-.84-.7-.95-1.93-.25-2.76L245.08,35.33c.71-.83,1.96-.94,2.8-.24,.84,.7,.95,1.93,.25,2.76L54.92,264.67c-.39,.46-.96,.7-1.52,.7Z"/><path class="cls-2" d="M98.6,291.07c-.23,0-.46-.04-.68-.12-1.03-.37-1.56-1.49-1.19-2.51L199.54,10.22c.37-1.02,1.52-1.54,2.55-1.17,1.03,.37,1.56,1.49,1.19,2.51L100.46,289.78c-.29,.8-1.06,1.29-1.87,1.29Z"/><path class="cls-2" d="M150,300c-1.1,0-1.99-.88-1.99-1.96V1.96c0-1.08,.89-1.96,1.99-1.96s1.99,.88,1.99,1.96V298.04c0,1.08-.89,1.96-1.99,1.96Z"/></g><path class="cls-1" d="M148.01,251.12c55.23,0,100-44.77,100-100s-44.77-100-100-100V251.12Z"/></svg>